<?xml version="1.0" encoding="utf-8"?>
<svg xmlns="http://www.w3.org/2000/svg" xmlns:svg="http://www.w3.org/2000/svg" version="1.1" viewBox="0 0 1400 440">
	<title>The titlepage for the Standard Ebooks edition of The Man in the Brown Suit, by Agatha Christie</title>
	<g aria-label="THE MAN">
		<path d="M 462.79532,68.245613 H 481.1345 V 130 h 17.59064 V 68.245613 h 18.33918 V 52.807016 h -54.269 z"/>
		<path d="m 545.98976,99.029239 h 24.88889 V 130 H 588.4693 V 52.807016 H 570.87865 V 83.590642 H 545.98976 V 52.807016 H 528.39912 V 130 h 17.59064 z"/>
		<path d="M 648.8348,52.807016 H 604.67105 V 130 H 648.8348 V 114.5614 H 622.2617 V 99.029239 h 25.45029 V 83.590642 H 622.2617 V 68.245613 h 26.5731 z"/>
		<path d="m 758.34503,130 h 17.59065 L 769.0117,52.807016 H 750.29825 L 733.17544,97.345029 716.05264,52.807016 H 697.33919 L 690.41521,130 h 17.59064 l 3.64913,-45.754387 h 0.46783 l 15.81287,45.286547 h 10.47953 l 15.81287,-45.286547 h 0.46783 z"/>
		<path d="m 827.18715,52.807016 h -16.2807 L 779.74855,130 h 18.90059 l 5.7076,-15.4386 h 29.38012 L 839.44446,130 h 18.90058 z m 0.5614,46.31579 h -17.40351 l 8.60819,-22.45614 h 0.18714 z"/>
		<path d="m 883.85528,82.093566 h 0.18713 L 914.73247,130 h 17.59065 V 52.807016 h -17.59065 v 47.906434 h -0.18713 L 883.85528,52.807016 H 866.26464 V 130 h 17.59064 z"/>
	</g>
	<g aria-label="IN THE BROWN SUIT">
		<path d="M 202.66739,152.80702 H 185.07675 V 230 h 17.59064 z"/>
		<path d="m 236.54166,182.09357 h 0.18713 L 267.41885,230 h 17.59064 v -77.19298 h -17.59064 v 47.90643 h -0.18713 L 236.54166,152.80702 H 218.95101 V 230 h 17.59065 z"/>
		<path d="m 322.40424,168.24561 h 18.33918 V 230 h 17.59065 v -61.75439 h 18.33918 v -15.43859 h -54.26901 z"/>
		<path d="m 405.59868,199.02924 h 24.88889 V 230 h 17.59064 v -77.19298 h -17.59064 v 30.78362 H 405.59868 V 152.80702 H 388.00804 V 230 h 17.59064 z"/>
		<path d="M 508.44371,152.80702 H 464.27996 V 230 h 44.16375 v -15.4386 h -26.5731 v -15.53216 h 25.45029 v -15.4386 h -25.45029 v -15.34503 h 26.5731 z"/>
		<path d="M 554.14108,152.80702 V 230 h 29.28655 c 16,0 25.26316,-8.79532 25.26316,-21.52047 0,-12.44444 -6.83041,-17.77778 -16.46784,-19.46199 6.54971,-3.36842 9.63743,-9.45029 9.63743,-16.5614 0,-14.69006 -10.47954,-19.64912 -23.76609,-19.64912 z m 17.59064,30.22222 v -16.65497 h 1.40351 c 7.67251,0 11.69591,2.33918 11.69591,7.85965 0,6.45614 -4.11696,8.79532 -11.69591,8.79532 z m 0,33.40351 v -18.24562 h 5.52047 c 8.32748,0 12.91228,2.52632 12.91228,9.63743 0,6.08187 -4.5848,8.60819 -12.91228,8.60819 z"/>
		<path d="M 621.45834,152.80702 V 230 h 17.59064 V 199.49708 L 662.62793,230 h 22.36257 l -26.5731,-31.90643 c 9.4503,-2.99416 15.81287,-10.76024 15.81287,-22.36258 0,-15.15789 -10.8538,-22.92397 -25.16959,-22.92397 z m 17.59064,34.24561 V 166.8421 h 2.05848 c 6.64328,0 14.59649,0.46784 14.59649,10.10527 0,9.63742 -7.95321,10.10526 -14.59649,10.10526 z"/>
		<path d="m 690.06508,191.35672 c 0,22.54971 16.09356,40.04679 38.92397,40.04679 22.17544,0 38.83041,-17.49708 38.83041,-40.04679 0,-22.5497 -17.40351,-39.95321 -38.83041,-39.95321 -21.23976,0 -38.92397,17.40351 -38.92397,39.95321 z m 18.99415,0 c 0,-11.50877 6.36257,-23.01754 19.92982,-23.01754 13.66082,0 19.83626,11.50877 19.83626,23.01754 0,11.50878 -5.80117,23.01755 -19.83626,23.01755 -14.40935,0 -19.92982,-11.50877 -19.92982,-23.01755 z"/>
		<path d="m 836.88526,230 h 19.46199 l 21.9883,-77.19298 h -19.46198 l -13.19299,52.95906 h -0.46783 l -14.03509,-52.95906 h -13.28655 l -14.03509,52.95906 h -0.46784 L 790.1952,152.80702 H 770.63965 L 792.62795,230 h 19.55556 l 12.35087,-43.32164 z"/>
		<path d="m 905.14548,182.09357 h 0.18713 L 936.02267,230 h 17.59065 v -77.19298 h -17.59065 v 47.90643 h -0.18713 L 905.14548,152.80702 H 887.55483 V 230 h 17.59065 z"/>
		<path d="m 1027.0592,151.40351 c -12.4444,0 -25.1696,9.16959 -25.1696,23.57895 0,8.04678 5.4269,15.25146 14.6901,19.83625 9.1696,4.5848 17.4035,7.11111 17.4035,12.72515 0,7.20468 -7.2983,7.57895 -11.1345,7.57895 -8.6082,0 -18.9006,-8.70176 -18.9006,-8.70176 l -8.79532,14.78363 c 0,0 10.94742,10.19883 29.00582,10.19883 15.0644,0 29.0994,-6.45614 29.0994,-24.88889 0,-10.10526 -9.4502,-17.40351 -18.0584,-21.05263 -8.7954,-3.74269 -16.0936,-6.83041 -16.0936,-11.13451 0,-4.21052 3.1813,-6.92397 9.1696,-6.92397 7.9532,0 15.6257,5.33333 15.6257,5.33333 l 7.1111,-14.03509 c 0,0 -9.9181,-7.29824 -23.9532,-7.29824 z"/>
		<path d="m 1125.8019,152.80702 h -17.5907 v 44.63158 c 0,12.91228 -3.9298,16.65497 -12.538,16.65497 -8.6082,0 -12.538,-3.74269 -12.538,-16.65497 v -44.63158 h -17.5906 v 49.77777 c 0,19.08772 10.4795,28.81872 30.1286,28.81872 19.6492,0 30.1287,-9.731 30.1287,-28.81872 z"/>
		<path d="m 1158.6981,152.80702 h -17.5907 V 230 h 17.5907 z"/>
		<path d="m 1165.5476,168.24561 h 18.3391 V 230 h 17.5907 v -61.75439 h 18.3392 v -15.43859 h -54.269 z"/>
	</g>
	<g aria-label="AGATHA CHRISTIE">
		<path d="M 370.28345,332.10526 H 358.07292 L 334.7045,390 h 14.17544 l 4.2807,-11.57895 h 22.03509 L 379.47643,390 h 14.17544 z m 0.42105,34.73685 H 357.65187 L 364.10801,350 h 0.14035 z"/>
		<path d="M 453.19244,357.57895 H 426.4556 v 10.17544 h 13.33333 c 0,7.08772 -6.24561,11.15789 -12.5614,11.15789 -8.14035,0 -14.73685,-8 -14.73685,-17.82456 0,-10.03509 6.5965,-18.10526 14.73685,-18.10526 5.1228,0 9.54386,2.03508 12.91228,7.43859 l 8.63158,-9.47368 c -5.05264,-6.10526 -12.14036,-9.89474 -22.31579,-9.89474 -16.28071,0 -28.21053,13.40351 -28.21053,30.03509 0,16.5614 12.63158,29.96491 28.21053,29.96491 11.36842,0 23.57894,-6.24561 26.73684,-20.91228 z"/>
		<path d="M 493.3591,332.10526 H 481.14857 L 457.78015,390 h 14.17544 l 4.2807,-11.57895 h 22.03509 L 502.55208,390 h 14.17544 z m 0.42105,34.73685 H 480.72752 L 487.18366,350 h 0.14035 z"/>
		<path d="m 516.84156,343.68421 h 13.75439 V 390 h 13.19298 v -46.31579 h 13.75439 v -11.57895 h -40.70176 z"/>
		<path d="m 580.48739,366.77193 h 18.66667 V 390 h 13.19298 v -57.89474 h -13.19298 v 23.08772 H 580.48739 V 332.10526 H 567.29441 V 390 h 13.19298 z"/>
		<path d="M 655.15185,332.10526 H 642.94133 L 619.57291,390 h 14.17544 l 4.2807,-11.57895 h 22.03508 L 664.34484,390 h 14.17543 z m 0.42106,34.73685 H 642.52028 L 648.97642,350 h 0.14035 z"/>
		<path d="m 738.51261,378.07018 c -13.26316,0 -19.08772,-9.26316 -19.08772,-17.05264 0,-7.71929 5.82456,-16.98245 19.08772,-16.98245 6.73684,0 11.36842,3.57895 11.36842,3.57895 l 5.61403,-11.22807 c 0,0 -6.45614,-5.33334 -19.01754,-5.33334 -16.42105,0 -31.36842,13.47369 -31.36842,30.10527 0,16.5614 15.01754,29.89473 31.36842,29.89473 12.5614,0 19.01754,-5.33333 19.01754,-5.33333 l -5.61403,-11.22807 c 0,0 -4.63158,3.57895 -11.36842,3.57895 z"/>
		<path d="m 778.80427,366.77193 h 18.66667 V 390 h 13.19298 v -57.89474 h -13.19298 v 23.08772 H 778.80427 V 332.10526 H 765.61129 V 390 h 13.19298 z"/>
		<path d="M 824.06524,332.10526 V 390 h 13.19298 V 367.12281 L 854.94243,390 h 16.77193 l -19.92982,-23.92982 c 7.08772,-2.24562 11.85965,-8.07018 11.85965,-16.77193 0,-11.36842 -8.14035,-17.19299 -18.8772,-17.19299 z m 13.19298,25.68421 v -15.15789 h 1.54386 c 4.98246,0 10.94737,0.35088 10.94737,7.57895 0,7.22807 -5.96491,7.57894 -10.94737,7.57894 z"/>
		<path d="M 892.55974,332.10526 H 879.36675 V 390 h 13.19299 z"/>
		<path d="m 925.98518,331.05263 c -9.33333,0 -18.87719,6.8772 -18.87719,17.68421 0,6.03509 4.07017,11.4386 11.01754,14.8772 6.8772,3.43859 13.05263,5.33333 13.05263,9.54385 0,5.40351 -5.47368,5.68422 -8.35087,5.68422 -6.45614,0 -14.17544,-6.52632 -14.17544,-6.52632 l -6.59649,11.08772 c 0,0 8.21052,7.64912 21.75438,7.64912 11.29825,0 21.82456,-4.8421 21.82456,-18.66666 0,-7.57895 -7.08771,-13.05264 -13.54385,-15.78948 -6.5965,-2.80702 -12.07018,-5.12281 -12.07018,-8.35088 0,-3.15789 2.38596,-5.19298 6.87719,-5.19298 5.96491,0 11.7193,4 11.7193,4 l 5.33333,-10.52631 c 0,0 -7.43859,-5.47369 -17.96491,-5.47369 z"/>
		<path d="m 949.72532,343.68421 h 13.75439 V 390 h 13.19298 v -46.31579 h 13.75439 v -11.57895 h -40.70176 z"/>
		<path d="m 1013.3711,332.10526 h -13.1929 V 390 h 13.1929 z"/>
		<path d="m 1059.9567,332.10526 h -33.1228 V 390 h 33.1228 v -11.57895 h -19.9299 v -11.64912 h 19.0878 v -11.57895 h -19.0878 v -11.50877 h 19.9299 z"/>
	</g>
</svg>
